# xmcd
#
# Track frame offsets:
# 150
# 13480
# 28310
# 43045
# 53897
# 67420
# 79732
# 89912
# 102540
# 115995
# 128925
# 140075
# 154157
# 169435
# 181900
# 192985
# 206530
# 216842
# 228810
# 241705
#
# Disc length: 3403 seconds
#
# Revision: 0
# Processed by: cddbd v1.4PL0 Copyright (c) Steve Scherf et al.
# Submitted via: Axialis_AX_CDPlayer 2.6
#
DISCID=350d4914
DTITLE=Monos Loizoz - 40 Skorpies Hxografiseis
DYEAR=1900
DGENRE=
TTITLE0=Tragoydi Toy Dromoy
TTITLE1=Nyxta Mikri Arxontissa
TTITLE2=To Feggari Erimo
TTITLE3=Karabia Alites
TTITLE4=Mikros O Kosmos Gyro Moy
TTITLE5=O Dromos
TTITLE6=Protomagia
TTITLE7=H Kithara
TTITLE8=Laikos Xoros Se 9/8
TTITLE9=Enas Plai Ston Allon
TTITLE10=Ayto T'agori
TTITLE11=Pos Ton Agapo
TTITLE12=Sabbatobrado
TTITLE13=Enas Plai Ston Allo
TTITLE14=To Lebentopaido
TTITLE15=H Gorgona
TTITLE16=H Doyleia Kanei Toys Antres
TTITLE17=Ap;th Zoi Parapono den exo
TTITLE18=Paramythaki Moy
TTITLE19=Ta Pleoymena
EXTD=
EXTT0=
EXTT1=
EXTT2=
EXTT3=
EXTT4=
EXTT5=
EXTT6=
EXTT7=
EXTT8=
EXTT9=
EXTT10=
EXTT11=
EXTT12=
EXTT13=
EXTT14=
EXTT15=
EXTT16=
EXTT17=
EXTT18=
EXTT19=
PLAYORDER=
